<svg width="24" height="25" viewBox="0 0 24 25" fill="none" xmlns="http://www.w3.org/2000/svg">
<path d="M7.443 5.84998C8.082 5.84998 8.673 5.89998 9.213 6.04798C9.754 6.14698 10.197 6.34498 10.59 6.59198C10.984 6.83898 11.279 7.18598 11.475 7.63098C11.672 8.07598 11.771 8.62098 11.771 9.21398C11.771 9.90698 11.623 10.5 11.279 10.945C10.984 11.391 10.492 11.786 9.902 12.083C10.738 12.331 11.377 12.776 11.771 13.369C12.164 13.963 12.41 14.705 12.41 15.546C12.41 16.239 12.262 16.832 12.016 17.327C11.771 17.822 11.377 18.267 10.934 18.564C10.4528 18.8823 9.92084 19.1164 9.361 19.256C8.771 19.405 8.181 19.504 7.591 19.504H1V5.84998H7.443ZM7.049 11.39C7.59 11.39 8.033 11.242 8.377 10.995C8.721 10.748 8.869 10.302 8.869 9.75798C8.869 9.46098 8.819 9.16398 8.721 8.96698C8.623 8.76898 8.475 8.61998 8.279 8.47198C8.07851 8.35961 7.863 8.27644 7.639 8.22498C7.393 8.17498 7.148 8.17498 6.852 8.17498H4V11.391L7.049 11.39ZM7.197 17.228C7.492 17.228 7.787 17.178 8.033 17.129C8.279 17.079 8.525 16.981 8.721 16.832C8.92138 16.6872 9.08903 16.5018 9.213 16.288C9.311 16.041 9.41 15.744 9.41 15.398C9.41 14.705 9.213 14.21 8.82 13.864C8.426 13.567 7.885 13.419 7.246 13.419H4V17.229L7.197 17.228ZM16.689 17.178C17.082 17.574 17.672 17.772 18.459 17.772C19 17.772 19.492 17.624 19.885 17.377C20.279 17.08 20.525 16.783 20.623 16.486H23.033C22.639 17.673 22.049 18.514 21.263 19.058C20.475 19.553 19.541 19.85 18.41 19.85C17.6864 19.8522 16.9688 19.7179 16.295 19.454C15.6887 19.2266 15.148 18.8528 14.721 18.366C14.2643 17.9106 13.9267 17.3497 13.738 16.733C13.492 16.09 13.393 15.398 13.393 14.606C13.393 13.864 13.492 13.172 13.738 12.528C13.9748 11.908 14.3251 11.3376 14.771 10.846C15.213 10.401 15.754 10.006 16.344 9.75798C17.0007 9.49404 17.7022 9.35957 18.41 9.36198C19.246 9.36198 19.984 9.51098 20.623 9.85698C21.263 10.203 21.754 10.599 22.147 11.193C22.541 11.737 22.837 12.38 23.033 13.073C23.131 13.765 23.18 14.458 23.131 15.249H16C16 16.041 16.295 16.783 16.689 17.179M19.787 11.985C19.443 11.639 18.902 11.441 18.262 11.441C17.8867 11.4354 17.5156 11.5201 17.18 11.688C16.885 11.837 16.689 12.035 16.492 12.233C16.311 12.4242 16.1912 12.6652 16.148 12.925C16.098 13.173 16.049 13.37 16.049 13.568H20.475C20.377 12.826 20.131 12.332 19.787 11.985ZM15.459 6.78998H20.967V8.12598H15.46L15.459 6.78998Z" fill="white"/>
</svg>
