<svg width="24" height="25" viewBox="0 0 24 25" fill="none" xmlns="http://www.w3.org/2000/svg">
<path d="M12 3.5H9C8.20435 3.5 7.44129 3.81607 6.87868 4.37868C6.31607 4.94129 6 5.70435 6 6.5C6 7.29565 6.31607 8.05871 6.87868 8.62132C7.44129 9.18393 8.20435 9.5 9 9.5H12M12 3.5V9.5M12 3.5H15C15.7956 3.5 16.5587 3.81607 17.1213 4.37868C17.6839 4.94129 18 5.70435 18 6.5C18 7.29565 17.6839 8.05871 17.1213 8.62132C16.5587 9.18393 15.7956 9.5 15 9.5H12" stroke="white" stroke-width="1.5" stroke-linecap="round" stroke-linejoin="round"/>
<path d="M9 15.5C8.20435 15.5 7.44129 15.8161 6.87868 16.3787C6.31607 16.9413 6 17.7044 6 18.5C6 19.2956 6.31607 20.0587 6.87868 20.6213C7.44129 21.1839 8.20435 21.5 9 21.5C9.79565 21.5 10.5587 21.1839 11.1213 20.6213C11.6839 20.0587 12 19.2956 12 18.5V15.5M9 15.5H12M9 15.5C8.20435 15.5 7.44129 15.1839 6.87868 14.6213C6.31607 14.0587 6 13.2956 6 12.5C6 11.7044 6.31607 10.9413 6.87868 10.3787C7.44129 9.81607 8.20435 9.5 9 9.5H12V15.5M12 12.5C12 11.7044 12.3161 10.9413 12.8787 10.3787C13.4413 9.81607 14.2044 9.5 15 9.5C15.7956 9.5 16.5587 9.81607 17.1213 10.3787C17.6839 10.9413 18 11.7044 18 12.5C18 13.2956 17.6839 14.0587 17.1213 14.6213C16.5587 15.1839 15.7956 15.5 15 15.5C14.2044 15.5 13.4413 15.1839 12.8787 14.6213C12.3161 14.0587 12 13.2956 12 12.5Z" stroke="white" stroke-width="1.5" stroke-linecap="round" stroke-linejoin="round"/>
</svg>
