<svg width="24" height="25" viewBox="0 0 24 25" fill="none" xmlns="http://www.w3.org/2000/svg">
<path d="M6.94 5.49999C6.93974 6.03043 6.72877 6.53903 6.35351 6.91391C5.97825 7.2888 5.46944 7.49926 4.939 7.49899C4.40857 7.49873 3.89997 7.28776 3.52508 6.9125C3.1502 6.53724 2.93974 6.02843 2.94 5.49799C2.94027 4.96756 3.15124 4.45896 3.5265 4.08407C3.90176 3.70919 4.41057 3.49873 4.941 3.49899C5.47144 3.49926 5.98004 3.71023 6.35492 4.08549C6.72981 4.46075 6.94027 4.96956 6.94 5.49999ZM7 8.97999H3V21.5H7V8.97999ZM13.32 8.97999H9.34V21.5H13.28V14.93C13.28 11.27 18.05 10.93 18.05 14.93V21.5H22V13.57C22 7.39999 14.94 7.62999 13.28 10.66L13.32 8.97999Z" fill="white"/>
</svg>
